# xmcd
#
# Track frame offsets:
#	150
#	14571
#	33434
#	52038
#	74131
#	103318
#	121654
#	144891
#	165493
#	184009
#	215777
#	233836
#	258370
#	278782
#	307241
#
# Disc length: 4537 seconds
#
# Revision: 0
# Processed by: cddbd v1.5.2PL0 Copyright (c) Steve Scherf et al.
# Submitted via: EasyCDDAExtractor 16.0.6.1
#
DISCID=e311b70f
DTITLE=Various Artist - 2012 Steppin' Music Vol. 23
DYEAR=2012
DGENRE=R&B
TTITLE0=Chante Moore  - Bitter
TTITLE1=Marzette Griffith - Better Days
TTITLE2=Moodorama - I Think It's Love
TTITLE3=Carmichael - Pot of Gold
TTITLE4=Dial Tone  - A Steppers Delite
TTITLE5=Trina Broussard ft Boney James - Heaven
TTITLE6=Curt Jones - Somebody's Loving You
TTITLE7=JS - Love Angel
TTITLE8=Barry White - Oh What A Night For Dancing
TTITLE9=Kenny Loggins - Now that I know love
TTITLE10=John Legend ft. Ludacris - Tonight (Best You've Ever Had)
TTITLE11=Sweet Coffee - No Ordinary Love
TTITLE12=Odyssey - Don't Tell Me, Tell Her
TTITLE13=Blank and Jones - Daydreamin
TTITLE14=Phil Collins - In The Air Tonight (Remix)
EXTD=
EXTT0=
EXTT1=
EXTT2=
EXTT3=
EXTT4=
EXTT5=
EXTT6=
EXTT7=
EXTT8=
EXTT9=
EXTT10=
EXTT11=
EXTT12=
EXTT13=
EXTT14=
PLAYORDER=
